<svg viewBox="0 0 160 160" version="1.1" xmlns:xlink="http://www.w3.org/1999/xlink" id="svg_null"><defs><rect id="3585b512-d30b-4342-9386-11be353b49f1" x="0" y="0" width="128" height="64"></rect></defs><g id="root" stroke="none" stroke-width="1" fill="none" fill-rule="evenodd"><rect id="background" fill="#FFF" x="0" y="0" width="160" height="160"></rect><g id="group" transform="translate(25.000000, 42.000000)"><mask id="b0f6e0de-035b-40f3-8560-498af9f73da9" fill="#fff"><use xlink:href="#3585b512-d30b-4342-9386-11be353b49f1"></use></mask><use id="shape.secondary" fill="#bfe9db" xlink:href="#3585b512-d30b-4342-9386-11be353b49f1"></use><path d="M120.707 -7l70.71 70.71l-0.706 0.708l-70.711 -70.71l0.707 -0.708zm-4 0l70.71 70.71l-0.706 0.708l-70.711 -70.71l0.707 -0.708zm-4 0l70.71 70.71l-0.706 0.708l-70.711 -70.71l0.707 -0.708zm-4 0l70.71 70.71l-0.706 0.708l-70.711 -70.71l0.707 -0.708zm-4 0l70.71 70.71l-0.706 0.708l-70.711 -70.71l0.707 -0.708zm-4 0l70.71 70.71l-0.706 0.708l-70.711 -70.71l0.707 -0.708zm-4 0l70.71 70.71l-0.706 0.708l-70.711 -70.71l0.707 -0.708zm-4 0l70.71 70.71l-0.706 0.708l-70.711 -70.71l0.707 -0.708zm-4 0l70.71 70.71l-0.706 0.708l-70.711 -70.71l0.707 -0.708zm-4 0l70.71 70.71l-0.706 0.708l-70.711 -70.71l0.707 -0.708zm-4 0l70.71 70.71l-0.706 0.708l-70.711 -70.71l0.707 -0.708zm-4 0l70.71 70.71l-0.706 0.708l-70.711 -70.71l0.707 -0.708zm-4 0l70.71 70.71l-0.706 0.708l-70.711 -70.71l0.707 -0.708zm-4 0l70.71 70.71l-0.706 0.708l-70.711 -70.71l0.707 -0.708zm-4 0l70.71 70.71l-0.706 0.708l-70.711 -70.71l0.707 -0.708zm-4 0l70.71 70.71l-0.706 0.708l-70.711 -70.71l0.707 -0.708zm-4 0l70.71 70.71l-0.706 0.708l-70.711 -70.71l0.707 -0.708zm-4 0l70.71 70.71l-0.706 0.708l-70.711 -70.71l0.707 -0.708zm-4 0l70.71 70.71l-0.706 0.708l-70.711 -70.71l0.707 -0.708zm-4 0l70.71 70.71l-0.706 0.708l-70.711 -70.71l0.707 -0.708zm-4 0l70.71 70.71l-0.706 0.708l-70.711 -70.71l0.707 -0.708zm-4 0l70.71 70.71l-0.706 0.708l-70.711 -70.71l0.707 -0.708zm-4 0l70.71 70.71l-0.706 0.708l-70.711 -70.71l0.707 -0.708zm-4 0l70.71 70.71l-0.706 0.708l-70.711 -70.71l0.707 -0.708zm-4 0l70.71 70.71l-0.706 0.708l-70.711 -70.71l0.707 -0.708zm-4 0l70.71 70.71l-0.706 0.708l-70.711 -70.71l0.707 -0.708zm-4 0l70.71 70.71l-0.706 0.708l-70.711 -70.71l0.707 -0.708zm-4 0l70.71 70.71l-0.706 0.708l-70.711 -70.71l0.707 -0.708zm-4 0l70.71 70.71l-0.706 0.708l-70.711 -70.71l0.707 -0.708zm-4 0l70.71 70.71l-0.706 0.708l-70.711 -70.71l0.707 -0.708zm-4 0l70.71 70.71l-0.706 0.708l-70.711 -70.71l0.707 -0.708zm-4 0l70.71 70.71l-0.706 0.708l-70.711 -70.71l0.707 -0.708zm-4 0l70.71 70.71l-0.706 0.708l-70.711 -70.71l0.707 -0.708zm-4 0l70.71 70.71l-0.706 0.708l-70.711 -70.71l0.707 -0.708zm-4 0l70.71 70.71l-0.706 0.708l-70.711 -70.71l0.707 -0.708zm-4 0l70.71 70.71l-0.706 0.708l-70.711 -70.71l0.707 -0.708zm-4 0l70.71 70.71l-0.706 0.708l-70.711 -70.71l0.707 -0.708zm-4 0l70.71 70.71l-0.706 0.708l-70.711 -70.71l0.707 -0.708zm-4 0l70.71 70.71l-0.706 0.708l-70.711 -70.71l0.707 -0.708zm-4 0l70.71 70.71l-0.706 0.708l-70.711 -70.71l0.707 -0.708z" id="shape" fill="#000" mask="url(#b0f6e0de-035b-40f3-8560-498af9f73da9)"></path></g><rect id="shape.primary" fill="#e1f6f4" x="11" y="56" width="128" height="64"></rect><rect id="shape" fill="#FFF" x="28" y="76" width="96" height="24"></rect><g id="Group" transform="translate(32.000000, 77.000000)"><rect id="Rectangle-56" x="0" y="0" width="88" height="22"></rect><text id="headerText" font-family="Roboto" font-size="18" font-weight="700" line-spacing="18" fill="#000" data-text-alignment="c" font-style="normal"><tspan x="31.1015625" y="17.5">WJ</tspan></text></g></g></svg>